<?xml version="1.0" encoding="UTF-8"?>
<svg id="Layer_1" data-name="Layer 1" xmlns="http://www.w3.org/2000/svg" viewBox="0 0 361.48 464.94">
  <defs>
    <style>
      .cls-1 {
        stroke: #499b9b;
      }

      .cls-1, .cls-2, .cls-3, .cls-4, .cls-5, .cls-6, .cls-7, .cls-8, .cls-9, .cls-10, .cls-11, .cls-12, .cls-13, .cls-14 {
        fill: none;
        stroke-miterlimit: 10;
        stroke-width: 4px;
      }

      .cls-2 {
        stroke: #bde4e6;
      }

      .cls-3 {
        stroke: #469393;
      }

      .cls-4 {
        stroke: #7fcfd6;
      }

      .cls-5 {
        stroke: #5bc6ca;
      }

      .cls-6 {
        stroke: #348380;
      }

      .cls-15 {
        fill: #7fcfd6;
      }

      .cls-7 {
        stroke: #376d6d;
      }

      .cls-8 {
        stroke: #51a8a8;
      }

      .cls-9 {
        stroke: #358584;
      }

      .cls-10 {
        stroke: #90d5dc;
      }

      .cls-11 {
        stroke: #47a09d;
      }

      .cls-16 {
        fill: #53b950;
      }

      .cls-12 {
        stroke: #7bced4;
      }

      .cls-13 {
        stroke: #479e9e;
      }

      .cls-14 {
        stroke: #71cbcf;
      }
    </style>
  </defs>
  <g>
    <line class="cls-2" x1="209.14" y1="197.2" x2="203.37" y2="203.52"/>
    <line class="cls-10" x1="219.72" y1="202.27" x2="209.14" y2="197.2"/>
    <line class="cls-10" x1="218.82" y1="209.49" x2="219.72" y2="202.27"/>
    <line class="cls-10" x1="213.41" y1="214.13" x2="218.82" y2="209.49"/>
    <line class="cls-4" x1="199.47" y1="213.47" x2="213.41" y2="214.13"/>
    <line class="cls-12" x1="191.51" y1="205.51" x2="199.47" y2="213.47"/>
    <line class="cls-14" x1="193" y1="194.06" x2="191.51" y2="205.51"/>
    <line class="cls-5" x1="204.94" y1="186.6" x2="193" y2="194.06"/>
    <line class="cls-8" x1="219.38" y1="187.84" x2="204.94" y2="186.6"/>
    <line class="cls-8" x1="228.58" y1="194.31" x2="219.38" y2="187.84"/>
    <line class="cls-11" x1="233.42" y1="205.01" x2="228.58" y2="194.31"/>
    <line class="cls-13" x1="231.16" y1="216.7" x2="233.42" y2="205.01"/>
    <line class="cls-1" x1="221.47" y1="226.41" x2="231.16" y2="216.7"/>
    <line class="cls-3" x1="206.93" y1="228.4" x2="221.47" y2="226.41"/>
    <line class="cls-9" x1="192.01" y1="226.22" x2="206.93" y2="228.71"/>
    <line class="cls-6" x1="160.16" y1="205.51" x2="192.01" y2="225.91"/>
    <polyline class="cls-7" points="128.06 208.49 143.49 203.02 160.16 205.51"/>
  </g>
  <g>
    <path class="cls-15" d="m49.64,257.86c-1.35-.95-2.03-2.28-2.03-4.01,0-.18.02-.45.06-.81h4.29c-.08.84.15,1.53.68,2.07.53.54,1.3.81,2.32.81s1.83-.21,2.42-.65c.59-.43.89-1.04.89-1.85,0-.74-.31-1.33-.92-1.77-.61-.44-1.57-.93-2.87-1.47-1.2-.5-2.17-.96-2.92-1.38-.75-.42-1.39-1.01-1.92-1.76-.53-.75-.79-1.69-.79-2.83,0-1.3.33-2.43,1-3.39.67-.96,1.59-1.7,2.76-2.22,1.17-.52,2.5-.78,4-.78s2.77.25,3.86.74c1.09.49,1.91,1.19,2.46,2.08.55.9.78,1.95.7,3.15h-4.47l.03-.33c0-.66-.25-1.2-.73-1.62-.49-.42-1.18-.63-2.06-.63-.94,0-1.7.22-2.28.66-.58.44-.87,1.04-.87,1.8,0,.5.17.94.5,1.31s.73.69,1.21.96,1.17.62,2.07,1.04c1.18.52,2.15,1.01,2.91,1.47.76.46,1.41,1.07,1.95,1.83.54.76.81,1.69.81,2.79,0,1.2-.33,2.27-.98,3.21-.65.94-1.57,1.68-2.76,2.21-1.19.53-2.58.79-4.16.79-2.1,0-3.83-.47-5.17-1.42Z"/>
    <path class="cls-15" d="m80.46,243.94c1.24,1.17,1.86,2.74,1.86,4.72,0,.64-.05,1.21-.15,1.71-.12.6-.25,1.12-.39,1.56h-12.15c-.02.14-.03.34-.03.6,0,1.04.3,1.86.92,2.44.61.59,1.41.89,2.41.89.84,0,1.56-.18,2.18-.56.61-.37,1.1-.85,1.48-1.46h4.53c-.74,1.6-1.89,2.92-3.44,3.95-1.55,1.03-3.31,1.54-5.27,1.54-2.12,0-3.82-.6-5.1-1.8-1.28-1.2-1.92-2.83-1.92-4.89,0-.6.06-1.23.18-1.89.3-1.72.92-3.23,1.84-4.53.93-1.3,2.08-2.3,3.47-3,1.38-.7,2.89-1.05,4.53-1.05,2.12,0,3.8.58,5.04,1.76Zm-2.4,4.75c0-.96-.31-1.71-.93-2.25-.62-.54-1.43-.81-2.43-.81-1.06,0-2.01.33-2.85,1-.84.67-1.43,1.59-1.77,2.75h7.92c.04-.32.06-.55.06-.69Z"/>
    <path class="cls-15" d="m85.88,246.24c.89-1.3,1.98-2.3,3.26-3,1.28-.7,2.63-1.05,4.05-1.05,1.24,0,2.28.25,3.13.75.85.5,1.98,1.94,2.38,2.7l-.09-3.18h4.62v5.74l-3.33,10.88h-4.23l.45-2.43c-.66.78-1.52,1.43-2.56,1.94-1.05.51-2.2.77-3.44.77s-2.3-.27-3.24-.83c-.94-.55-1.67-1.33-2.19-2.34-.52-1.01-.78-2.19-.78-3.52,0-.62.06-1.27.18-1.95.3-1.68.89-3.17,1.78-4.47Zm11.39,3.39c0-1.18-.35-2.1-1.04-2.76s-1.56-.99-2.59-.99c-.78,0-1.54.19-2.27.57-.73.38-1.37.94-1.91,1.67s-.9,1.6-1.08,2.59c-.06.38-.09.74-.09,1.08,0,1.2.34,2.15,1.02,2.83.68.69,1.54,1.04,2.58,1.04.78,0,1.54-.2,2.28-.58.74-.39,1.38-.96,1.91-1.7.53-.74.88-1.61,1.06-2.61.08-.52.12-.9.12-1.14Z"/>
    <path class="cls-15" d="m120.74,246.58c-.79.81-1.75,1.4-2.9,1.75.96.2,1.73.68,2.33,1.44.59.76.88,1.66.88,2.7,0,.28-.03.59-.09.93-.28,1.7-1.14,3.07-2.56,4.11-1.43,1.04-3.22,1.56-5.35,1.56h-9.03l3.43-11.56.29-9.38h8.64c1.9,0,3.36.4,4.4,1.2,1.03.8,1.54,1.87,1.54,3.21,0,.32-.03.65-.09.99-.2,1.22-.7,2.23-1.49,3.04Zm-3.88,5.72c0-.72-.25-1.29-.77-1.7-.51-.41-1.21-.61-2.11-.61h-3.3l-1.83,5.76h4.23c1.02,0,1.86-.25,2.52-.75.66-.5,1.06-1.2,1.2-2.1.04-.28.06-.48.06-.6Zm1.02-8.67c0-.7-.23-1.24-.69-1.62-.46-.38-1.13-.57-2.01-.57h-3.81l.07,5.4h2.81c.98,0,1.79-.23,2.43-.7.64-.47,1.03-1.12,1.17-1.97.02-.12.03-.3.03-.54Z"/>
    <path class="cls-15" d="m132.48,243.06c.96-.56,2-.84,3.12-.84l-.78,4.41h-1.11c-1.24,0-2.23.27-2.98.81s-1.3,1.46-1.64,2.76l-1.56,8.88h-4.23l2.94-16.62h4.23l-.51,2.94c.72-1,1.56-1.78,2.52-2.34Z"/>
    <path class="cls-15" d="m150.72,243.94c1.24,1.17,1.86,2.74,1.86,4.72,0,.64-.05,1.21-.15,1.71-.12.6-.25,1.12-.39,1.56h-12.15c-.02.14-.03.34-.03.6,0,1.04.3,1.86.92,2.44.61.59,1.41.89,2.41.89.84,0,1.56-.18,2.18-.56.61-.37,1.1-.85,1.48-1.46h4.53c-.74,1.6-1.89,2.92-3.44,3.95-1.55,1.03-3.31,1.54-5.27,1.54-2.12,0-3.82-.6-5.1-1.8-1.28-1.2-1.92-2.83-1.92-4.89,0-.6.06-1.23.18-1.89.3-1.72.92-3.23,1.84-4.53.93-1.3,2.08-2.3,3.47-3,1.38-.7,2.89-1.05,4.53-1.05,2.12,0,3.8.58,5.04,1.76Zm-2.4,4.75c0-.96-.31-1.71-.93-2.25-.62-.54-1.43-.81-2.43-.81-1.06,0-2.01.33-2.85,1-.84.67-1.43,1.59-1.77,2.75h7.92c.04-.32.06-.55.06-.69Z"/>
    <path class="cls-15" d="m169.23,243.94c1.24,1.17,1.86,2.74,1.86,4.72,0,.64-.05,1.21-.15,1.71-.12.6-.25,1.12-.39,1.56h-12.15c-.02.14-.03.34-.03.6,0,1.04.3,1.86.92,2.44.61.59,1.41.89,2.41.89.84,0,1.56-.18,2.18-.56.61-.37,1.1-.85,1.48-1.46h4.53c-.74,1.6-1.89,2.92-3.44,3.95-1.55,1.03-3.31,1.54-5.27,1.54-2.12,0-3.82-.6-5.1-1.8-1.28-1.2-1.92-2.83-1.92-4.89,0-.6.06-1.23.18-1.89.3-1.72.92-3.23,1.84-4.53.93-1.3,2.08-2.3,3.47-3,1.38-.7,2.89-1.05,4.53-1.05,2.12,0,3.8.58,5.04,1.76Zm-2.4,4.75c0-.96-.31-1.71-.93-2.25-.62-.54-1.43-.81-2.43-.81-1.06,0-2.01.33-2.85,1-.84.67-1.43,1.59-1.77,2.75h7.92c.04-.32.06-.55.06-.69Z"/>
    <path class="cls-15" d="m176.94,255.63h7.38l-.63,3.45h-12.15l.6-3.39,5.23-5.7,3.74-4.08h-7.23l.6-3.45h12.06l-.57,3.39-5.07,5.49-3.96,4.29Z"/>
    <path class="cls-15" d="m202.23,243.94c1.24,1.17,1.86,2.74,1.86,4.72,0,.64-.05,1.21-.15,1.71-.12.6-.25,1.12-.39,1.56h-12.15c-.02.14-.03.34-.03.6,0,1.04.3,1.86.92,2.44.61.59,1.41.89,2.41.89.84,0,1.56-.18,2.18-.56.61-.37,1.1-.85,1.48-1.46h4.53c-.74,1.6-1.89,2.92-3.43,3.95-1.55,1.03-3.31,1.54-5.27,1.54-2.12,0-3.82-.6-5.1-1.8-1.28-1.2-1.92-2.83-1.92-4.89,0-.6.06-1.23.18-1.89.3-1.72.92-3.23,1.84-4.53.93-1.3,2.08-2.3,3.47-3,1.38-.7,2.89-1.05,4.53-1.05,2.12,0,3.8.58,5.04,1.76Zm-2.4,4.75c0-.96-.31-1.71-.93-2.25s-1.43-.81-2.43-.81c-1.06,0-2.01.33-2.85,1-.84.67-1.43,1.59-1.77,2.75h7.92c.04-.32.06-.55.06-.69Z"/>
    <path class="cls-15" d="m221.4,238.14l-2.09,11.85-1.6,9.09h-4.23l1.61-9.07,2.11-11.87h4.2Z"/>
    <path class="cls-15" d="m238.07,243.61c.99.93,1.48,2.25,1.48,3.97,0,.64-.05,1.22-.15,1.74l-1.74,9.75h-4.17l1.62-9.18c.06-.36.09-.71.09-1.05,0-1-.27-1.76-.79-2.28-.53-.52-1.29-.78-2.27-.78-1.12,0-2.07.33-2.87,1-.79.67-1.31,1.64-1.57,2.9l-1.65,9.39h-4.23l2.94-16.62h4.23l-.36,2.04c.68-.7,1.49-1.25,2.43-1.67.94-.41,1.92-.61,2.94-.61,1.72,0,3.08.46,4.07,1.4Z"/>
    <path class="cls-15" d="m248.82,242.46l-2.94,16.62h-4.23l2.94-16.62h4.23Zm-3.33-2.55c-.4-.38-.6-.86-.6-1.44,0-.8.3-1.49.92-2.06s1.33-.85,2.15-.85c.64,0,1.16.19,1.56.57.4.38.6.86.6,1.44,0,.8-.3,1.48-.9,2.05-.6.57-1.31.85-2.13.85-.66,0-1.19-.19-1.59-.57Z"/>
    <path class="cls-15" d="m255.81,253.95c-.02.12-.03.28-.03.48,0,.4.12.69.34.85.23.17.62.25,1.16.25h1.98l-.63,3.54h-2.67c-3,0-4.5-1.25-4.5-3.75,0-.48.04-.95.12-1.41l1.41-8.01h-1.98l.6-3.45h2.01l.72-4.11h4.23l-.72,4.11h3.69l-.6,3.45h-3.72l-1.41,8.04Z"/>
    <path class="cls-15" d="m268.8,242.46l-2.94,16.62h-4.23l2.94-16.62h4.23Zm-3.33-2.55c-.4-.38-.6-.86-.6-1.44,0-.8.3-1.49.92-2.06.61-.57,1.32-.85,2.14-.85.64,0,1.16.19,1.56.57.4.38.6.86.6,1.44,0,.8-.3,1.48-.9,2.05-.6.57-1.31.85-2.13.85-.66,0-1.19-.19-1.59-.57Z"/>
    <path class="cls-15" d="m272.18,246.24c.89-1.3,1.97-2.3,3.25-3,1.28-.7,2.63-1.05,4.05-1.05,1.24,0,2.29.25,3.13.75.85.5,1.47,1.13,1.88,1.89l.42-2.37h4.23l-2.94,16.62h-4.23l.45-2.43c-.66.78-1.51,1.43-2.56,1.94-1.05.51-2.2.77-3.44.77s-2.3-.27-3.24-.83c-.94-.55-1.67-1.33-2.19-2.34-.52-1.01-.78-2.19-.78-3.52,0-.62.06-1.27.18-1.95.3-1.68.89-3.17,1.79-4.47Zm11.38,3.39c0-1.18-.35-2.1-1.04-2.76s-1.55-.99-2.59-.99c-.78,0-1.54.19-2.26.57-.73.38-1.37.94-1.91,1.67-.54.73-.9,1.6-1.08,2.59-.06.38-.09.74-.09,1.08,0,1.2.34,2.15,1.02,2.83.68.69,1.54,1.04,2.58,1.04.78,0,1.54-.2,2.28-.58.74-.39,1.38-.96,1.9-1.7.53-.74.88-1.61,1.07-2.61.08-.52.12-.9.12-1.14Z"/>
    <path class="cls-15" d="m296.13,253.95c-.02.12-.03.28-.03.48,0,.4.12.69.35.85.23.17.61.25,1.15.25h1.98l-.63,3.54h-2.67c-3,0-4.5-1.25-4.5-3.75,0-.48.04-.95.12-1.41l1.41-8.01h-1.98l.6-3.45h2.01l.72-4.11h4.23l-.72,4.11h3.69l-.6,3.45h-3.72l-1.41,8.04Z"/>
    <path class="cls-15" d="m309.12,242.46l-2.94,16.62h-4.23l2.94-16.62h4.23Zm-3.33-2.55c-.4-.38-.6-.86-.6-1.44,0-.8.3-1.49.92-2.06s1.33-.85,2.15-.85c.64,0,1.16.19,1.56.57.4.38.6.86.6,1.44,0,.8-.3,1.48-.9,2.05-.6.57-1.31.85-2.13.85-.66,0-1.19-.19-1.59-.57Z"/>
    <path class="cls-15" d="m317.91,255.21l6.45-12.75h4.53l-9.09,16.62h-5.16l-3.18-16.62h4.5l1.95,12.75Z"/>
    <path class="cls-15" d="m343.56,243.94c1.24,1.17,1.86,2.74,1.86,4.72,0,.64-.05,1.21-.15,1.71-.12.6-.25,1.12-.39,1.56h-12.15c-.02.14-.03.34-.03.6,0,1.04.3,1.86.92,2.44.61.59,1.41.89,2.41.89.84,0,1.56-.18,2.18-.56.61-.37,1.1-.85,1.48-1.46h0c2.06,0,2.94,2.68,1.24,3.85-.05.03-.1.07-.15.1-1.55,1.03-3.31,1.54-5.27,1.54-2.12,0-3.82-.6-5.1-1.8-1.28-1.2-1.92-2.83-1.92-4.89,0-.6.06-1.23.18-1.89.3-1.72.92-3.23,1.84-4.53.93-1.3,2.08-2.3,3.47-3,1.38-.7,2.89-1.05,4.53-1.05,2.12,0,3.8.58,5.04,1.76Zm-2.4,4.75c0-.96-.31-1.71-.93-2.25-.62-.54-1.43-.81-2.43-.81-1.06,0-2.01.33-2.85,1-.84.67-1.43,1.59-1.77,2.75h7.92c.04-.32.06-.55.06-.69Z"/>
    <path class="cls-16" d="m157.89,267.03c.75-.54,1.78-.8,3.09-.76l-.34,2.01c-.57-.01-.99.08-1.26.29s-.45.57-.54,1.1l-.07.39h1.65l-.34,1.96h-1.65l-1.33,7.46h-2.4l1.33-7.46h-1.09l.34-1.96h1.09l.08-.48c.2-1.16.68-2.01,1.43-2.55Z"/>
    <path class="cls-16" d="m162.39,279.14c-.62-.33-1.1-.79-1.44-1.39s-.51-1.29-.51-2.07c0-1.06.25-2.04.76-2.92.5-.88,1.2-1.57,2.07-2.08.88-.51,1.86-.76,2.93-.76.8,0,1.52.17,2.15.5.63.33,1.12.8,1.46,1.4s.52,1.29.52,2.07c0,1.08-.25,2.05-.76,2.92-.51.87-1.21,1.56-2.1,2.07-.89.5-1.87.76-2.95.76-.8,0-1.52-.16-2.13-.49Zm4-2.04c.46-.33.83-.77,1.09-1.31s.39-1.12.39-1.72c0-.68-.19-1.2-.57-1.57-.38-.37-.86-.55-1.44-.55s-1.09.16-1.54.49c-.45.33-.8.77-1.05,1.32-.25.55-.37,1.13-.37,1.74,0,.67.18,1.18.54,1.55.36.36.82.54,1.4.54s1.08-.16,1.55-.49Z"/>
    <path class="cls-16" d="m176.35,270.4c.54-.32,1.13-.48,1.77-.48l-.44,2.5h-.63c-.7,0-1.27.15-1.69.46-.43.31-.73.83-.93,1.56l-.88,5.03h-2.4l1.67-9.42h2.4l-.29,1.67c.41-.57.88-1.01,1.43-1.33Z"/>
    <path class="cls-16" d="m184.15,278.79c-.76-.54-1.15-1.29-1.15-2.27,0-.1.01-.25.03-.46h2.43c-.05.48.08.87.38,1.17s.74.46,1.32.46,1.03-.12,1.37-.37c.33-.24.5-.59.5-1.05,0-.42-.17-.75-.52-1s-.89-.53-1.62-.83c-.68-.28-1.23-.54-1.66-.78-.43-.24-.79-.57-1.09-.99s-.45-.96-.45-1.61c0-.74.19-1.38.57-1.92.38-.54.9-.96,1.56-1.26.66-.29,1.42-.44,2.27-.44s1.57.14,2.18.42c.62.28,1.08.67,1.39,1.18.31.51.44,1.11.4,1.79h-2.53l.02-.19c0-.37-.14-.68-.42-.92-.28-.24-.67-.36-1.16-.36-.53,0-.96.12-1.29.37s-.49.59-.49,1.02c0,.28.09.53.28.74s.42.39.69.54c.27.15.66.35,1.17.59.67.29,1.22.57,1.65.83.43.26.8.61,1.1,1.04.31.43.46.96.46,1.58,0,.68-.18,1.29-.55,1.82-.37.53-.89.95-1.56,1.25-.67.3-1.46.45-2.35.45-1.19,0-2.17-.27-2.93-.81Z"/>
    <path class="cls-16" d="m201.61,270.9c.7.66,1.05,1.56,1.05,2.68,0,.36-.03.69-.09.97-.07.34-.14.64-.22.88h-6.89c-.01.08-.02.19-.02.34,0,.59.17,1.05.52,1.39.35.33.8.5,1.37.5.48,0,.89-.1,1.23-.31s.63-.48.84-.82h2.57c-.42.91-1.07,1.65-1.95,2.24-.88.58-1.87.88-2.98.88-1.2,0-2.16-.34-2.89-1.02-.73-.68-1.09-1.6-1.09-2.77,0-.34.03-.7.1-1.07.17-.97.52-1.83,1.05-2.57.53-.74,1.18-1.3,1.96-1.7.78-.4,1.64-.59,2.57-.59,1.2,0,2.15.33,2.86.99Zm-1.36,2.7c0-.54-.18-.97-.53-1.28s-.81-.46-1.38-.46c-.6,0-1.14.19-1.62.57s-.81.9-1,1.56h4.49c.02-.18.04-.31.04-.39Z"/>
    <path class="cls-16" d="m204.68,272.2c.5-.74,1.12-1.3,1.84-1.7.73-.4,1.49-.59,2.3-.59.7,0,1.29.14,1.78.42.48.28.84.64,1.06,1.07l.24-1.34h2.4l-1.67,9.42h-2.4l.26-1.38c-.38.44-.86.81-1.45,1.1-.59.29-1.24.43-1.95.43s-1.3-.16-1.84-.47c-.53-.31-.95-.75-1.24-1.33-.29-.57-.44-1.24-.44-2,0-.35.03-.72.1-1.1.17-.95.51-1.8,1.01-2.53Zm6.45,1.92c0-.67-.2-1.19-.59-1.56s-.88-.56-1.47-.56c-.44,0-.87.11-1.28.32-.41.22-.77.53-1.08.94-.3.41-.51.9-.61,1.47-.03.22-.05.42-.05.61,0,.68.19,1.21.58,1.61.38.39.87.59,1.46.59.44,0,.87-.11,1.29-.33.42-.22.78-.54,1.08-.96.3-.42.5-.91.6-1.48.05-.29.07-.51.07-.65Z"/>
    <path class="cls-16" d="m219.58,266.9l-2.23,12.58h-2.4l2.23-12.58h2.4Z"/>
    <path class="cls-16" d="m223.75,270.06l-1.67,9.42h-2.4l1.67-9.42h2.4Zm-1.89-1.45c-.23-.21-.34-.49-.34-.82,0-.45.17-.84.52-1.16s.75-.48,1.21-.48c.36,0,.66.11.88.32.23.21.34.49.34.82,0,.45-.17.84-.51,1.17-.34.32-.74.48-1.21.48-.38,0-.68-.11-.9-.32Z"/>
    <path class="cls-16" d="m227.86,267.03c.75-.54,1.78-.8,3.09-.76l-.34,2.01c-.57-.01-.99.08-1.26.29-.27.2-.45.57-.54,1.1l-.07.39h1.65l-.34,1.96h-1.65l-1.33,7.46h-2.4l1.33-7.46h-1.09l.34-1.96h1.09l.09-.48c.2-1.16.68-2.01,1.43-2.55Z"/>
    <path class="cls-16" d="m238.94,270.9c.7.66,1.05,1.56,1.05,2.68,0,.36-.03.69-.08.97-.07.34-.14.64-.22.88h-6.89c-.01.08-.02.19-.02.34,0,.59.17,1.05.52,1.39.34.33.8.5,1.37.5.48,0,.89-.1,1.23-.31s.63-.48.84-.82h2.57c-.42.91-1.07,1.65-1.95,2.24-.88.58-1.87.88-2.98.88-1.2,0-2.16-.34-2.89-1.02s-1.09-1.6-1.09-2.77c0-.34.04-.7.1-1.07.17-.97.52-1.83,1.05-2.57.53-.74,1.18-1.3,1.96-1.7.78-.4,1.64-.59,2.57-.59,1.2,0,2.15.33,2.86.99Zm-1.36,2.7c0-.54-.18-.97-.53-1.28-.35-.31-.81-.46-1.38-.46-.6,0-1.14.19-1.61.57-.48.38-.81.9-1,1.56h4.49c.02-.18.03-.31.03-.39Z"/>
  </g>
  <polygon class="cls-16" points="142.61 219 149.52 211.81 152.93 212.74 157.68 219 161.48 215.4 166.78 219 163.21 223.9 158.12 222.75 152.93 223.62 146.46 230.27 139.44 230.27 146.46 222.69 141.35 221.76 139.72 222.37 135.6 219.94 142.61 219"/>
</svg>